<svg width="16" height="16" viewBox="0 0 16 16" fill="none" xmlns="http://www.w3.org/2000/svg">
<path d="M1.33325 7.99984C1.33325 5.48568 1.33325 4.2286 2.1143 3.44755C2.89535 2.6665 4.15243 2.6665 6.66659 2.6665H9.33325C11.8474 2.6665 13.1045 2.6665 13.8855 3.44755C14.6666 4.2286 14.6666 5.48568 14.6666 7.99984V9.33317C14.6666 11.8473 14.6666 13.1044 13.8855 13.8854C13.1045 14.6665 11.8474 14.6665 9.33325 14.6665H6.66659C4.15243 14.6665 2.89535 14.6665 2.1143 13.8854C1.33325 13.1044 1.33325 11.8473 1.33325 9.33317V7.99984Z" stroke="#797979"/>
<path d="M4.66675 2.6665V1.6665" stroke="#797979" stroke-width="1.5" stroke-linecap="round"/>
<path d="M11.3333 2.6665V1.6665" stroke="#797979" stroke-width="1.5" stroke-linecap="round"/>
<path d="M1.66675 6H14.3334" stroke="#797979" stroke-linecap="round"/>
<path d="M12.0001 11.3332C12.0001 11.7014 11.7016 11.9998 11.3334 11.9998C10.9652 11.9998 10.6667 11.7014 10.6667 11.3332C10.6667 10.965 10.9652 10.6665 11.3334 10.6665C11.7016 10.6665 12.0001 10.965 12.0001 11.3332Z" fill="#797979"/>
<path d="M12.0001 8.66667C12.0001 9.03487 11.7016 9.33333 11.3334 9.33333C10.9652 9.33333 10.6667 9.03487 10.6667 8.66667C10.6667 8.29847 10.9652 8 11.3334 8C11.7016 8 12.0001 8.29847 12.0001 8.66667Z" fill="#797979"/>
<path d="M8.66659 11.3332C8.66659 11.7014 8.36812 11.9998 7.99992 11.9998C7.63172 11.9998 7.33325 11.7014 7.33325 11.3332C7.33325 10.965 7.63172 10.6665 7.99992 10.6665C8.36812 10.6665 8.66659 10.965 8.66659 11.3332Z" fill="#797979"/>
<path d="M8.66659 8.66667C8.66659 9.03487 8.36812 9.33333 7.99992 9.33333C7.63172 9.33333 7.33325 9.03487 7.33325 8.66667C7.33325 8.29847 7.63172 8 7.99992 8C8.36812 8 8.66659 8.29847 8.66659 8.66667Z" fill="#797979"/>
<path d="M5.33333 11.3332C5.33333 11.7014 5.03485 11.9998 4.66667 11.9998C4.29848 11.9998 4 11.7014 4 11.3332C4 10.965 4.29848 10.6665 4.66667 10.6665C5.03485 10.6665 5.33333 10.965 5.33333 11.3332Z" fill="#797979"/>
<path d="M5.33333 8.66667C5.33333 9.03487 5.03485 9.33333 4.66667 9.33333C4.29848 9.33333 4 9.03487 4 8.66667C4 8.29847 4.29848 8 4.66667 8C5.03485 8 5.33333 8.29847 5.33333 8.66667Z" fill="#797979"/>
</svg>
