<svg width="20" height="20" viewBox="0 0 20 20" fill="none" xmlns="http://www.w3.org/2000/svg">
<path d="M18.4314 20.0002H1.56863C0.703686 20.0002 0 19.2678 0 18.3675V3.26547C0 2.36522 0.703686 1.63281 1.56863 1.63281H2.7451C2.96165 1.63281 3.13725 1.81559 3.13725 2.04098V2.83783C3.13725 3.06587 3.30667 3.25759 3.51498 3.26518C3.73686 3.274 3.92157 3.08942 3.92157 2.8573V2.04098C3.92157 1.81559 4.09718 1.63281 4.31373 1.63281H7.05882C7.27541 1.63281 7.45098 1.81559 7.45098 2.04098V2.83783C7.45098 3.06587 7.62039 3.25759 7.82871 3.26518C8.04886 3.27396 8.23529 3.09098 8.23529 2.8573V2.04098C8.23529 1.81559 8.41086 1.63281 8.62745 1.63281H11.3725C11.5891 1.63281 11.7647 1.81559 11.7647 2.04098V2.83783C11.7647 3.06587 11.9341 3.25759 12.1424 3.26518C12.3626 3.27391 12.549 3.09102 12.549 2.8573V2.04098C12.549 1.81559 12.7246 1.63281 12.9412 1.63281H15.6863C15.9028 1.63281 16.0784 1.81559 16.0784 2.04098V2.83783C16.0784 3.06587 16.2478 3.25759 16.4562 3.26518C16.6763 3.27396 16.8627 3.09098 16.8627 2.8573V2.04098C16.8627 1.81559 17.0384 1.63281 17.2549 1.63281H18.4314C19.2963 1.63281 20 2.36522 20 3.26547V18.3675C20 19.2678 19.2963 20.0002 18.4314 20.0002ZM1.56863 2.44914C1.13616 2.44914 0.784314 2.81534 0.784314 3.26547V18.3675C0.784314 18.8176 1.13616 19.1838 1.56863 19.1838H18.4314C18.8638 19.1838 19.2157 18.8176 19.2157 18.3675V3.26547C19.2157 2.81534 18.8638 2.44914 18.4314 2.44914H17.6471V2.8573C17.6471 3.55147 17.096 4.10494 16.4287 4.08102C15.7925 4.05783 15.2941 3.51175 15.2941 2.83783V2.44914H13.3333V2.8573C13.3333 3.5493 12.7845 4.10506 12.115 4.08102C11.4787 4.05783 10.9804 3.51175 10.9804 2.83783V2.44914H9.01961V2.8573C9.01961 3.54649 8.47333 4.1051 7.80126 4.08102C7.16502 4.05783 6.66667 3.51175 6.66667 2.83783V2.44914H4.70588V2.8573C4.70588 3.54991 4.15651 4.10502 3.48753 4.08102C2.85129 4.05783 2.35294 3.51175 2.35294 2.83783V2.44914H1.56863Z" fill="black"/>
<path d="M19.6078 6.53117H0.392157C0.175569 6.53117 0 6.34844 0 6.12301C0 5.89758 0.175569 5.71484 0.392157 5.71484H19.6078C19.8244 5.71484 20 5.89758 20 6.12301C20 6.34844 19.8244 6.53117 19.6078 6.53117Z" fill="black"/>
<path d="M16.4704 4.08163C15.8217 4.08163 15.2939 3.53233 15.2939 2.85714V1.22449C15.2939 0.549306 15.8217 0 16.4704 0C17.1205 0 17.6469 0.547959 17.6469 1.22449V2.85714C17.6469 3.53233 17.1191 4.08163 16.4704 4.08163ZM16.4704 0.816326C16.2542 0.816326 16.0783 0.999429 16.0783 1.22449V2.85714C16.0783 3.0822 16.2542 3.26531 16.4704 3.26531C16.6867 3.26531 16.8626 3.0822 16.8626 2.85714V1.22449C16.8626 1.11559 16.8217 1.01314 16.7476 0.936C16.6735 0.858816 16.575 0.816326 16.4704 0.816326Z" fill="black"/>
<path d="M12.1569 4.08163C11.5082 4.08163 10.9805 3.53233 10.9805 2.85714V1.22449C10.9805 0.549306 11.5082 0 12.1569 0C12.807 0 13.3334 0.547959 13.3334 1.22449V2.85714C13.3334 3.53233 12.8056 4.08163 12.1569 4.08163ZM12.1569 0.816326C11.9407 0.816326 11.7648 0.999429 11.7648 1.22449V2.85714C11.7648 3.0822 11.9407 3.26531 12.1569 3.26531C12.3732 3.26531 12.5491 3.0822 12.5491 2.85714V1.22449C12.5491 0.999224 12.3734 0.816326 12.1569 0.816326Z" fill="black"/>
<path d="M7.84297 4.08163C7.19427 4.08163 6.6665 3.53233 6.6665 2.85714V1.22449C6.6665 0.549306 7.19427 0 7.84297 0C8.49301 0 9.01945 0.547959 9.01945 1.22449V2.85714C9.01945 3.53233 8.49168 4.08163 7.84297 4.08163ZM7.84297 0.816326C7.62674 0.816326 7.45082 0.999429 7.45082 1.22449V2.85714C7.45082 3.0822 7.62674 3.26531 7.84297 3.26531C8.05921 3.26531 8.23513 3.0822 8.23513 2.85714V1.22449C8.23513 0.999224 8.05948 0.816326 7.84297 0.816326Z" fill="black"/>
<path d="M3.5295 4.08163C2.88079 4.08163 2.35303 3.53233 2.35303 2.85714V1.22449C2.35303 0.549306 2.88079 0 3.5295 0C4.17954 0 4.70597 0.547959 4.70597 1.22449V2.85714C4.70597 3.53233 4.1782 4.08163 3.5295 4.08163ZM3.5295 0.816326C3.31326 0.816326 3.13734 0.999429 3.13734 1.22449V2.85714C3.13734 3.0822 3.31326 3.26531 3.5295 3.26531C3.74573 3.26531 3.92165 3.0822 3.92165 2.85714V1.22449C3.92165 0.999224 3.74601 0.816326 3.5295 0.816326Z" fill="black"/>
<path d="M4.31381 11.8355H2.74518C2.52864 11.8355 2.35303 11.6528 2.35303 11.4274V8.16207C2.35303 7.93664 2.52864 7.75391 2.74518 7.75391H4.31381C4.53036 7.75391 4.70597 7.93664 4.70597 8.16207C4.70597 8.3875 4.53036 8.57023 4.31381 8.57023H3.13734V11.0192H4.31381C4.53036 11.0192 4.70597 11.202 4.70597 11.4274C4.70597 11.6528 4.53036 11.8355 4.31381 11.8355Z" fill="black"/>
<path d="M14.1175 11.8355H12.5489C12.3323 11.8355 12.1567 11.6528 12.1567 11.4274V8.16207C12.1567 7.93664 12.3323 7.75391 12.5489 7.75391H14.1175C14.3341 7.75391 14.5097 7.93664 14.5097 8.16207C14.5097 8.3875 14.3341 8.57023 14.1175 8.57023H12.9411V11.0192H14.1175C14.3341 11.0192 14.5097 11.202 14.5097 11.4274C14.5097 11.6528 14.3341 11.8355 14.1175 11.8355Z" fill="black"/>
<path d="M5.88239 11.8355C5.6658 11.8355 5.49023 11.6528 5.49023 11.4274V8.16207C5.49023 7.93664 5.6658 7.75391 5.88239 7.75391C6.09898 7.75391 6.27455 7.93664 6.27455 8.16207V11.4274C6.27455 11.6528 6.09898 11.8355 5.88239 11.8355Z" fill="black"/>
<path d="M7.84333 11.8355C7.62674 11.8355 7.45117 11.6528 7.45117 11.4274V8.16207C7.45117 7.93664 7.62674 7.75391 7.84333 7.75391C8.05992 7.75391 8.23549 7.93664 8.23549 8.16207V11.4274C8.23549 11.6528 8.05992 11.8355 7.84333 11.8355Z" fill="black"/>
<path d="M7.84318 10.203H5.88239C5.6658 10.203 5.49023 10.0203 5.49023 9.79488C5.49023 9.56945 5.6658 9.38672 5.88239 9.38672H7.84318C8.05976 9.38672 8.23533 9.56945 8.23533 9.79488C8.23533 10.0203 8.05976 10.203 7.84318 10.203Z" fill="black"/>
<path d="M10.9803 11.8355H9.41169C9.1951 11.8355 9.01953 11.6528 9.01953 11.4274V8.16207C9.01953 7.93664 9.1951 7.75391 9.41169 7.75391H10.9803C11.1969 7.75391 11.3725 7.93664 11.3725 8.16207C11.3725 8.3875 11.1969 8.57023 10.9803 8.57023H9.80384V11.0192H10.9803C11.1969 11.0192 11.3725 11.202 11.3725 11.4274C11.3725 11.6528 11.1969 11.8355 10.9803 11.8355Z" fill="black"/>
<path d="M10.9803 10.203H9.41169C9.1951 10.203 9.01953 10.0203 9.01953 9.79488C9.01953 9.56945 9.1951 9.38672 9.41169 9.38672H10.9803C11.1969 9.38672 11.3725 9.56945 11.3725 9.79488C11.3725 10.0203 11.1969 10.203 10.9803 10.203Z" fill="black"/>
<path d="M15.6861 11.8355C15.4696 11.8355 15.2939 11.6528 15.2939 11.4274V8.16207C15.2939 7.93664 15.4696 7.75391 15.6861 7.75391C15.9027 7.75391 16.0783 7.93664 16.0783 8.16207V11.4274C16.0783 11.6528 15.9027 11.8355 15.6861 11.8355Z" fill="black"/>
<path d="M16.9485 11.6844L15.3799 9.64361C15.2446 9.46757 15.272 9.21075 15.4411 9.0699C15.6103 8.92912 15.8571 8.95765 15.9923 9.13361L17.561 11.1744C17.6962 11.3505 17.6688 11.6073 17.4997 11.7481C17.3313 11.8883 17.0845 11.8612 16.9485 11.6844Z" fill="black"/>
<path d="M15.4411 10.5216C15.272 10.3808 15.2446 10.124 15.3799 9.94792L16.9486 7.9071C17.0838 7.73114 17.3306 7.70249 17.4998 7.84339C17.6689 7.9842 17.6963 8.24106 17.561 8.4171L15.9924 10.4579C15.8567 10.6344 15.6097 10.662 15.4411 10.5216Z" fill="black"/>
<path d="M2.74518 17.5504C2.52864 17.5504 2.35303 17.3676 2.35303 17.1422V13.8769C2.35303 13.6515 2.52864 13.4688 2.74518 13.4688C2.96173 13.4688 3.13734 13.6515 3.13734 13.8769V17.1422C3.13734 17.3676 2.96173 17.5504 2.74518 17.5504Z" fill="black"/>
<path d="M5.94178 17.3585L4.7057 15.3001V17.1422C4.7057 17.3676 4.53009 17.5504 4.31354 17.5504C4.09699 17.5504 3.92139 17.3676 3.92139 17.1422V13.8769C3.92139 13.6948 4.03727 13.5348 4.20543 13.4846C4.37358 13.4344 4.55335 13.5062 4.64609 13.6606L5.88217 15.719V13.8769C5.88217 13.6515 6.05774 13.4688 6.27433 13.4688C6.49092 13.4688 6.66648 13.6515 6.66648 13.8769V17.1422C6.66648 17.3243 6.5506 17.4844 6.38245 17.5345C6.21433 17.5847 6.03456 17.5131 5.94178 17.3585Z" fill="black"/>
<path d="M9.52681 17.8409L7.56602 15.8001C7.41289 15.6407 7.41289 15.3823 7.56602 15.2228L9.52681 13.182C9.63897 13.0653 9.80763 13.0304 9.95418 13.0935C10.1007 13.1567 10.1963 13.3055 10.1963 13.4706V14.287H17.2551C17.4716 14.287 17.6472 14.4697 17.6472 14.6951V16.3278C17.6472 16.5532 17.4716 16.7359 17.2551 16.7359H10.1963V17.5523C10.1963 17.7174 10.1007 17.8662 9.95418 17.9294C9.80759 17.9925 9.63897 17.9577 9.52681 17.8409ZM8.39795 15.5115L9.41195 16.5669V16.3278C9.41195 16.1024 9.58752 15.9197 9.8041 15.9197H16.8629V15.1033H9.8041C9.58752 15.1033 9.41195 14.9206 9.41195 14.6952V14.4561L8.39795 15.5115Z" fill="black"/>
</svg>
