<svg width="15" height="15" viewBox="0 0 15 15" fill="none" xmlns="http://www.w3.org/2000/svg">
<path d="M8.0625 11.6875V8.59359" stroke="#797979" stroke-width="0.6" stroke-miterlimit="10" stroke-linecap="round" stroke-linejoin="round"/>
<mask id="mask0_1_180" style="mask-type:luminance" maskUnits="userSpaceOnUse" x="0" y="0" width="15" height="15">
<path d="M14.7002 14.7002V0.299805H0.299805V14.7002H14.7002Z" fill="white" stroke="white" stroke-width="0.6"/>
</mask>
<g mask="url(#mask0_1_180)">
<path d="M2.17969 10.9102V9.56314C2.17969 9.38751 2.32204 9.24516 2.49768 9.24516H12.5571C12.7327 9.24516 12.8751 9.38751 12.8751 9.56314V10.9102" stroke="#797979" stroke-width="0.6" stroke-miterlimit="10" stroke-linecap="round" stroke-linejoin="round"/>
<path d="M3.67605 3.53413C3.95985 1.66162 5.57637 0.226573 7.5281 0.226573C9.67995 0.226573 11.4243 1.97097 11.4243 4.12279C11.4243 6.27462 9.67995 8.01904 7.5281 8.01904C5.52445 8.01904 3.87404 6.50662 3.65625 4.56113" stroke="#797979" stroke-width="0.6" stroke-miterlimit="10" stroke-linecap="round" stroke-linejoin="round"/>
<path d="M7.98655 1.37534L6.95556 1.37968C6.76771 1.38047 6.60854 1.50132 6.55024 1.66922C6.52856 1.73159 6.47228 1.77525 6.40627 1.77554H6.40138C6.16144 1.77657 5.96776 1.97189 5.96875 2.21183L5.97259 3.11775C5.97259 3.11775 6.29697 3.1125 6.4489 3.21109C6.47536 3.22825 6.5077 3.23356 6.5387 3.22767L6.54037 3.22735C6.60028 3.21595 6.64355 3.16345 6.64329 3.10245L6.64085 2.5251C6.64021 2.36637 6.76824 2.23708 6.92697 2.2362H6.93083C6.99584 2.23591 7.06015 2.24619 7.12141 2.26617C7.22017 2.29846 7.32245 2.31867 7.42636 2.31824L7.47713 2.31803C7.59933 2.3175 7.72176 2.30212 7.83757 2.26319C7.89866 2.24265 7.96285 2.23184 8.02788 2.23157C8.18691 2.23067 8.31649 2.35899 8.31713 2.51804L8.31956 3.09484C8.31983 3.15574 8.36342 3.20783 8.42333 3.21882C8.45536 3.22468 8.48808 3.21768 8.51544 3.20007C8.66823 3.1019 8.99351 3.10497 8.99351 3.10497L8.99043 2.37079C8.98812 1.81869 8.53865 1.373 7.98655 1.37534Z" stroke="#797979" stroke-width="0.6" stroke-miterlimit="10" stroke-linecap="round" stroke-linejoin="round"/>
<path d="M5.97889 3.11888C5.90292 3.15872 5.85118 3.23838 5.85156 3.33008L5.85268 3.59311C5.85323 3.72424 5.95996 3.83003 6.09107 3.8295L6.18086 3.82912C6.18968 4.17359 6.33587 4.50459 6.59837 4.72868C6.80966 4.90909 7.10632 5.06612 7.49732 5.06885C7.88828 5.06281 8.1836 4.90332 8.39339 4.72112C8.65399 4.49483 8.79734 4.16261 8.80328 3.81808L8.89308 3.8177C9.02415 3.81714 9.13 3.71041 9.12945 3.57931L9.12833 3.31625C9.12795 3.22455 9.07551 3.14536 8.99925 3.10613" stroke="#797979" stroke-width="0.6" stroke-miterlimit="10" stroke-linecap="round" stroke-linejoin="round"/>
<path d="M8.41424 5.60986C8.30868 5.59662 8.22935 5.50721 8.22894 5.40083L8.22656 4.8417" stroke="#797979" stroke-width="0.6" stroke-miterlimit="10" stroke-linecap="round" stroke-linejoin="round"/>
<path d="M6.75151 4.84701L6.75389 5.40614C6.75433 5.51252 6.67575 5.60258 6.57031 5.6167" stroke="#797979" stroke-width="0.6" stroke-miterlimit="10" stroke-linecap="round" stroke-linejoin="round"/>
<path d="M10.2919 6.86719C10.2925 6.8468 10.2934 6.82688 10.2939 6.80613C10.3001 6.54709 10.2076 6.29188 10.0251 6.10793C9.93602 6.01816 9.82967 5.94404 9.70958 5.89122C9.37085 5.74213 8.73139 5.64776 8.41662 5.60824L7.49547 6.18981L6.56942 5.61604C6.25498 5.65819 5.61634 5.75795 5.27893 5.90985C5.26507 5.91612 5.25139 5.92266 5.23791 5.92945C4.9046 6.09753 4.70831 6.45229 4.71918 6.82526" stroke="#797979" stroke-width="0.6" stroke-miterlimit="10" stroke-linecap="round" stroke-linejoin="round"/>
<path d="M5.92969 5.7247L6.4887 6.53388C6.6128 6.71355 6.86587 6.7447 7.02987 6.60056L7.49423 6.19233" stroke="#797979" stroke-width="0.6" stroke-miterlimit="10" stroke-linecap="round" stroke-linejoin="round"/>
<path d="M9.06837 5.70957L8.5146 6.52469C8.39167 6.7056 8.13837 6.7385 7.97331 6.59503L7.50781 6.19036" stroke="#797979" stroke-width="0.6" stroke-miterlimit="10" stroke-linecap="round" stroke-linejoin="round"/>
<path d="M7.20904 7.06648L6.92188 7.97363" stroke="#797979" stroke-width="0.6" stroke-miterlimit="10" stroke-linecap="round" stroke-linejoin="round"/>
<path d="M8.09119 7.98047L7.79688 7.06386" stroke="#797979" stroke-width="0.6" stroke-miterlimit="10" stroke-linecap="round" stroke-linejoin="round"/>
<path d="M7.04688 6.58897L7.21 7.06543L7.79646 7.06297C7.79646 7.06297 7.95792 6.58736 7.95687 6.58684" stroke="#797979" stroke-width="0.6" stroke-miterlimit="10" stroke-linecap="round" stroke-linejoin="round"/>
<path d="M4.11514 12.8404C4.11514 13.9077 3.24988 14.7729 2.18257 14.7729C1.11525 14.7729 0.25 13.9077 0.25 12.8404C0.25 11.773 1.11525 10.9078 2.18257 10.9078C3.24988 10.9078 4.11514 11.773 4.11514 12.8404Z" stroke="#797979" stroke-width="0.6" stroke-miterlimit="10" stroke-linecap="round" stroke-linejoin="round"/>
<path d="M2.8148 12.605C2.8148 12.9648 2.53271 13.2563 2.18475 13.2563C1.83676 13.2563 1.55469 12.9648 1.55469 12.605C1.55469 12.2453 1.83676 11.9537 2.18475 11.9537C2.53271 11.9537 2.8148 12.2453 2.8148 12.605Z" stroke="#797979" stroke-width="0.6" stroke-miterlimit="10" stroke-linecap="round" stroke-linejoin="round"/>
<path d="M3.36116 14.3765V14.1717C3.35372 13.6718 3.0548 13.2455 2.63281 13.0665" stroke="#797979" stroke-width="0.6" stroke-miterlimit="10" stroke-linecap="round" stroke-linejoin="round"/>
<path d="M1.73619 13.0665C1.3142 13.2454 1.01528 13.6718 1.00781 14.1717V14.3765" stroke="#797979" stroke-width="0.6" stroke-miterlimit="10" stroke-linecap="round" stroke-linejoin="round"/>
<path d="M9.4667 12.8404C9.4667 13.9077 8.60147 14.7729 7.53413 14.7729C6.46682 14.7729 5.60156 13.9077 5.60156 12.8404C5.60156 11.773 6.46682 10.9078 7.53413 10.9078C8.60147 10.9078 9.4667 11.773 9.4667 12.8404Z" stroke="#797979" stroke-width="0.6" stroke-miterlimit="10" stroke-linecap="round" stroke-linejoin="round"/>
<path d="M8.15074 12.605C8.15074 12.9648 7.86864 13.2563 7.52068 13.2563C7.1727 13.2563 6.89062 12.9648 6.89062 12.605C6.89062 12.2453 7.1727 11.9537 7.52068 11.9537C7.86864 11.9537 8.15074 12.2453 8.15074 12.605Z" stroke="#797979" stroke-width="0.6" stroke-miterlimit="10" stroke-linecap="round" stroke-linejoin="round"/>
<path d="M8.70494 14.3765V14.1717C8.69747 13.6718 8.39855 13.2455 7.97656 13.0665" stroke="#797979" stroke-width="0.6" stroke-miterlimit="10" stroke-linecap="round" stroke-linejoin="round"/>
<path d="M7.07994 13.0665C6.65795 13.2454 6.35903 13.6718 6.35156 14.1717V14.3765" stroke="#797979" stroke-width="0.6" stroke-miterlimit="10" stroke-linecap="round" stroke-linejoin="round"/>
<path d="M14.7607 13.3106C14.5507 14.1507 13.7908 14.7729 12.8857 14.7729C11.8184 14.7729 10.9531 13.9077 10.9531 12.8404C10.9531 11.7731 11.8184 10.9078 12.8857 10.9078C13.7587 10.9078 14.4964 11.4866 14.7362 12.2813" stroke="#797979" stroke-width="0.6" stroke-miterlimit="10" stroke-linecap="round" stroke-linejoin="round"/>
<path d="M13.5101 12.605C13.5101 12.9648 13.228 13.2563 12.8801 13.2563C12.5321 13.2563 12.25 12.9648 12.25 12.605C12.25 12.2453 12.5321 11.9537 12.8801 11.9537C13.228 11.9537 13.5101 12.2453 13.5101 12.605Z" stroke="#797979" stroke-width="0.6" stroke-miterlimit="10" stroke-linecap="round" stroke-linejoin="round"/>
<path d="M14.0487 14.3765V14.1717C14.0412 13.6718 13.7423 13.2455 13.3203 13.0665" stroke="#797979" stroke-width="0.6" stroke-miterlimit="10" stroke-linecap="round" stroke-linejoin="round"/>
<path d="M12.4393 13.0665C12.0173 13.2454 11.7184 13.6718 11.7109 14.1717V14.3765" stroke="#797979" stroke-width="0.6" stroke-miterlimit="10" stroke-linecap="round" stroke-linejoin="round"/>
</g>
</svg>
