<svg width="23" height="23" viewBox="0 0 23 23" fill="none" xmlns="http://www.w3.org/2000/svg">
<path d="M9.104 13.4165C10.6919 13.4165 11.979 14.7036 11.979 16.2915C11.979 17.8793 10.6919 19.1665 9.104 19.1665C7.51619 19.1665 6.229 17.8793 6.229 16.2915C6.229 14.7036 7.51619 13.4165 9.104 13.4165Z" stroke="#797979" stroke-width="1.4375"/>
<path d="M13.896 3.8335C12.3081 3.8335 11.021 5.12067 11.021 6.7085C11.021 8.29631 12.3081 9.5835 13.896 9.5835C15.4839 9.5835 16.771 8.29631 16.771 6.7085C16.771 5.12067 15.4839 3.8335 13.896 3.8335Z" stroke="#797979" stroke-width="1.4375"/>
<path d="M14.375 16.252H21.0833" stroke="#797979" stroke-width="1.4375" stroke-linecap="round"/>
<path d="M8.62484 6.66846H1.9165" stroke="#797979" stroke-width="1.4375" stroke-linecap="round"/>
<path d="M1.9165 16.252H3.83317" stroke="#797979" stroke-width="1.4375" stroke-linecap="round"/>
<path d="M21.0832 6.66846H19.1665" stroke="#797979" stroke-width="1.4375" stroke-linecap="round"/>
</svg>
