<svg width="16" height="16" viewBox="0 0 16 16" fill="none" xmlns="http://www.w3.org/2000/svg">
<path d="M2 8C2 10.5141 2 13.1046 2.87868 13.8856C3.75736 14.6667 5.17157 14.6667 8 14.6667C10.8284 14.6667 12.2427 14.6667 13.1213 13.8856C14 13.1046 14 10.5141 14 8" stroke="#797979"/>
<path d="M9.77345 9.4681L13.7783 8.26663C14.1753 8.14756 14.3739 8.08796 14.4998 7.94523C14.5243 7.91743 14.5465 7.88763 14.5661 7.85616C14.6666 7.6945 14.6666 7.4873 14.6666 7.07276C14.6666 5.43934 14.6666 4.62263 14.2179 4.07122C14.1317 3.96525 14.0349 3.86838 13.9289 3.78215C13.3775 3.3335 12.5607 3.3335 10.9273 3.3335H5.07254C3.4391 3.3335 2.62239 3.3335 2.07098 3.78215C1.96501 3.86838 1.86814 3.96525 1.78191 4.07122C1.33325 4.62263 1.33325 5.43934 1.33325 7.07276C1.33325 7.4873 1.33325 7.6945 1.43377 7.85616C1.45335 7.88763 1.47553 7.91743 1.50006 7.94523C1.62602 8.08796 1.82452 8.14756 2.22152 8.26663L6.22637 9.4681" stroke="#797979"/>
<path d="M4.33325 3.3335C4.88221 3.31958 5.43942 2.9701 5.62621 2.45371C5.63196 2.43782 5.63785 2.42016 5.64963 2.38481L5.66674 2.3335C5.69486 2.24912 5.70893 2.20692 5.72397 2.1695C5.9161 1.69158 6.36633 1.36708 6.88045 1.33594C6.92072 1.3335 6.96519 1.3335 7.05419 1.3335H8.94599C9.03492 1.3335 9.07939 1.3335 9.11965 1.33594C9.63379 1.36708 10.0841 1.69158 10.2762 2.1695C10.2912 2.20692 10.3053 2.24912 10.3334 2.3335L10.3505 2.38481C10.3623 2.41995 10.3682 2.43787 10.3739 2.45371C10.5607 2.9701 11.1177 3.31958 11.6666 3.3335" stroke="#797979"/>
<path d="M9.33325 8.3335H6.66659C6.48249 8.3335 6.33325 8.48276 6.33325 8.66683V10.1078C6.33325 10.2441 6.41624 10.3667 6.54279 10.4173L7.00952 10.604C7.64532 10.8583 8.35452 10.8583 8.99032 10.604L9.45705 10.4173C9.58359 10.3667 9.66659 10.2441 9.66659 10.1078V8.66683C9.66659 8.48276 9.51732 8.3335 9.33325 8.3335Z" stroke="#797979" stroke-linecap="round"/>
</svg>
