<?xml version="1.0" encoding="UTF-8"?>
<!DOCTYPE svg PUBLIC "-//W3C//DTD SVG 1.1//EN" "http://www.w3.org/Graphics/SVG/1.1/DTD/svg11.dtd">
<svg xmlns="http://www.w3.org/2000/svg" version="1.1" width="813px" height="818px" style="shape-rendering:geometricPrecision; text-rendering:geometricPrecision; image-rendering:optimizeQuality; fill-rule:evenodd; clip-rule:evenodd" xmlns:xlink="http://www.w3.org/1999/xlink">
<g><path style="opacity:1" fill="#fdfefe" d="M -0.5,-0.5 C 270.5,-0.5 541.5,-0.5 812.5,-0.5C 812.5,272.167 812.5,544.833 812.5,817.5C 801.833,817.5 791.167,817.5 780.5,817.5C 780.462,797.972 772.128,783.138 755.5,773C 683.773,738.47 611.773,704.47 539.5,671C 532.576,660.316 527.409,648.816 524,636.5C 523.191,630.251 523.358,624.084 524.5,618C 517.981,615.327 511.314,613.16 504.5,611.5C 502.501,592.185 501.001,572.852 500,553.5C 514.937,528.956 525.437,502.622 531.5,474.5C 534.271,474.579 536.937,474.079 539.5,473C 542.293,469.919 544.46,466.419 546,462.5C 554.171,439.16 558.171,415.16 558,390.5C 556.943,387.441 555.109,384.941 552.5,383C 564.424,355.042 569.257,325.875 567,295.5C 562.586,264.994 548.586,239.994 525,220.5C 514.257,197.759 497.091,181.926 473.5,173C 434.344,160.557 395.677,161.89 357.5,177C 351.035,180.4 344.702,184.067 338.5,188C 328.956,197.054 319.623,206.387 310.5,216C 300.889,225.14 289.555,231.14 276.5,234C 269.868,235.171 263.535,234.338 257.5,231.5C 250.399,269.963 251.233,308.297 260,346.5C 263.352,359.382 267.185,372.049 271.5,384.5C 265.359,383.262 260.859,385.262 258,390.5C 258.215,414.788 262.215,438.455 270,461.5C 271.72,466.446 274.554,470.613 278.5,474C 280.81,474.497 283.143,474.663 285.5,474.5C 291.364,503.935 302.031,531.435 317.5,557C 315.474,575.174 313.474,593.341 311.5,611.5C 305.092,613.35 298.758,615.35 292.5,617.5C 294.567,629.768 292.733,641.434 287,652.5C 284.147,659.041 280.647,665.207 276.5,671C 204.166,704.503 132.166,738.503 60.5,773C 43.7111,783.077 35.7111,797.91 36.5,817.5C 24.1667,817.5 11.8333,817.5 -0.5,817.5C -0.5,544.833 -0.5,272.167 -0.5,-0.5 Z"/></g>
<g><path style="opacity:1" fill="#565759" d="M 780.5,817.5 C 532.5,817.5 284.5,817.5 36.5,817.5C 35.7111,797.91 43.7111,783.077 60.5,773C 132.166,738.503 204.166,704.503 276.5,671C 280.647,665.207 284.147,659.041 287,652.5C 292.733,641.434 294.567,629.768 292.5,617.5C 298.758,615.35 305.092,613.35 311.5,611.5C 313.474,593.341 315.474,575.174 317.5,557C 302.031,531.435 291.364,503.935 285.5,474.5C 283.143,474.663 280.81,474.497 278.5,474C 274.554,470.613 271.72,466.446 270,461.5C 262.215,438.455 258.215,414.788 258,390.5C 260.859,385.262 265.359,383.262 271.5,384.5C 267.185,372.049 263.352,359.382 260,346.5C 251.233,308.297 250.399,269.963 257.5,231.5C 263.535,234.338 269.868,235.171 276.5,234C 289.555,231.14 300.889,225.14 310.5,216C 319.623,206.387 328.956,197.054 338.5,188C 344.702,184.067 351.035,180.4 357.5,177C 395.677,161.89 434.344,160.557 473.5,173C 497.091,181.926 514.257,197.759 525,220.5C 548.586,239.994 562.586,264.994 567,295.5C 569.257,325.875 564.424,355.042 552.5,383C 555.109,384.941 556.943,387.441 558,390.5C 558.171,415.16 554.171,439.16 546,462.5C 544.46,466.419 542.293,469.919 539.5,473C 536.937,474.079 534.271,474.579 531.5,474.5C 525.437,502.622 514.937,528.956 500,553.5C 501.001,572.852 502.501,592.185 504.5,611.5C 511.314,613.16 517.981,615.327 524.5,618C 523.358,624.084 523.191,630.251 524,636.5C 527.409,648.816 532.576,660.316 539.5,671C 611.773,704.47 683.773,738.47 755.5,773C 772.128,783.138 780.462,797.972 780.5,817.5 Z"/></g>
</svg>
