<svg width="16" height="15" viewBox="0 0 16 15" fill="none" xmlns="http://www.w3.org/2000/svg">
<path d="M12.6858 13.4298C10.416 14.8685 7.34622 14.6185 5.35441 12.6798C3.06773 10.4541 3.06773 6.84555 5.35441 4.61987C7.64109 2.39416 11.3485 2.39416 13.6352 4.61987C15.6251 6.55676 15.8833 9.54089 14.4098 11.7496" stroke="#797979" stroke-width="0.7" stroke-miterlimit="10" stroke-linecap="round" stroke-linejoin="round"/>
<path d="M9.49823 12.9546C7.05382 12.9546 5.07227 11.0259 5.07227 8.64663C5.07227 6.2674 7.05382 4.33867 9.49823 4.33867C11.9426 4.33867 13.9242 6.2674 13.9242 8.64663C13.9242 11.0259 11.9426 12.9546 9.49823 12.9546Z" stroke="#797979" stroke-width="0.7" stroke-miterlimit="10" stroke-linecap="round" stroke-linejoin="round"/>
<path d="M8.39061 1.7749H10.5864C10.9906 1.7749 11.3183 1.45595 11.3183 1.06249C11.3183 0.669038 10.9906 0.350087 10.5864 0.350087H8.39061C7.98638 0.350087 7.65869 0.669038 7.65869 1.06249C7.65869 1.45595 7.98638 1.7749 8.39061 1.7749Z" stroke="#797979" stroke-width="0.7" stroke-miterlimit="10" stroke-linecap="round" stroke-linejoin="round"/>
<path d="M10.5295 2.95068V1.77889H8.44312V2.95068" stroke="#797979" stroke-width="0.7" stroke-miterlimit="10" stroke-linecap="round" stroke-linejoin="round"/>
<path d="M10.0654 8.0874L11.6321 6.56246" stroke="#797979" stroke-width="0.7" stroke-miterlimit="10" stroke-linecap="round" stroke-linejoin="round"/>
<path d="M8.85693 8.64935C8.85693 8.99484 9.14467 9.2749 9.49962 9.2749C9.85457 9.2749 10.1423 8.99484 10.1423 8.64935C10.1423 8.30386 9.85457 8.0238 9.49962 8.0238C9.14467 8.0238 8.85693 8.30386 8.85693 8.64935Z" stroke="#797979" stroke-width="0.7" stroke-miterlimit="10" stroke-linecap="round" stroke-linejoin="round"/>
<path d="M12.7537 8.65381H12.4712" stroke="#797979" stroke-width="0.7" stroke-miterlimit="10" stroke-linecap="round" stroke-linejoin="round"/>
<path d="M6.23486 8.64209H6.51739" stroke="#797979" stroke-width="0.7" stroke-miterlimit="10" stroke-linecap="round" stroke-linejoin="round"/>
<path d="M9.49756 5.48038V5.75537" stroke="#797979" stroke-width="0.7" stroke-miterlimit="10" stroke-linecap="round" stroke-linejoin="round"/>
<path d="M9.49756 11.8218V11.5468" stroke="#797979" stroke-width="0.7" stroke-miterlimit="10" stroke-linecap="round" stroke-linejoin="round"/>
<path d="M9.00984 8.17725L8.18188 7.37136" stroke="#797979" stroke-width="0.7" stroke-miterlimit="10" stroke-linecap="round" stroke-linejoin="round"/>
<path d="M9.93945 8.20459L11.5855 6.6025" stroke="#797979" stroke-width="0.7" stroke-miterlimit="10" stroke-linecap="round" stroke-linejoin="round"/>
<path d="M3.89834 10.4819H1.55737" stroke="#797979" stroke-width="0.7" stroke-miterlimit="10" stroke-linecap="round" stroke-linejoin="round"/>
<path d="M3.63733 8.74756H1.99048" stroke="#797979" stroke-width="0.7" stroke-miterlimit="10" stroke-linecap="round" stroke-linejoin="round"/>
<path d="M3.8296 7.00928H0.350098" stroke="#797979" stroke-width="0.7" stroke-miterlimit="10" stroke-linecap="round" stroke-linejoin="round"/>
<path d="M4.58754 5.271H2.41431" stroke="#797979" stroke-width="0.7" stroke-miterlimit="10" stroke-linecap="round" stroke-linejoin="round"/>
</svg>
