<svg width="26" height="26" viewBox="0 0 26 26" fill="none" xmlns="http://www.w3.org/2000/svg">
<path d="M19.9288 7.99133L20.5147 7.43521C21.4852 6.51379 23.0589 6.51379 24.0294 7.43521C25.0001 8.35663 25.0001 9.85055 24.0294 10.7719L23.4437 11.3281M19.9288 7.99133C19.9288 7.99133 20.0021 9.17311 21.1004 10.2158C22.1989 11.2585 23.4437 11.3281 23.4437 11.3281M19.9288 7.99133L14.5434 13.104C14.1786 13.4503 13.9962 13.6235 13.8393 13.8144C13.6544 14.0397 13.4957 14.2834 13.3663 14.5411C13.2566 14.7598 13.1749 14.992 13.0119 15.4566L12.4896 16.9441L12.3206 17.4253M23.4437 11.3281L18.0582 16.4409C17.6934 16.7872 17.511 16.9603 17.3099 17.1093C17.0727 17.2848 16.8159 17.4354 16.5444 17.5583C16.3141 17.6625 16.0695 17.74 15.5801 17.8948L14.0132 18.3906L13.5064 18.5511M12.3206 17.4253L12.1516 17.9067C12.0713 18.1353 12.134 18.3874 12.3135 18.5578C12.493 18.7282 12.7586 18.7877 12.9994 18.7115L13.5064 18.5511M12.3206 17.4253L13.5064 18.5511" stroke="#2D2D2D" stroke-width="1.5"/>
<path d="M7.07812 13.9443L10.2382 13.9443" stroke="#2D2D2D" stroke-width="1.5" stroke-linecap="round"/>
<path d="M7.07812 9.15625L15.2942 9.15625" stroke="#2D2D2D" stroke-width="1.5" stroke-linecap="round"/>
<path d="M7.07812 18.7427L8.97415 18.7427" stroke="#2D2D2D" stroke-width="1.5" stroke-linecap="round"/>
<path d="M22.0214 2.15588C20.5406 0.75 18.157 0.75 13.3902 0.75L10.8621 0.75C6.09522 0.75 3.71178 0.75 2.23088 2.15588C0.75 3.56178 0.75 5.82451 0.75 10.35L0.75 15.15C0.75 19.6754 0.75 21.9383 2.23088 23.3441C3.71178 24.75 6.09522 24.75 10.8621 24.75L13.3902 24.75C18.157 24.75 20.5406 24.75 22.0214 23.3441C23.2135 22.2124 23.4459 20.5255 23.4913 17.55" stroke="#2D2D2D" stroke-width="1.5" stroke-linecap="round"/>
</svg>
